PathFileType	4	(X/Y/Z)	TVC_4_BWA_6_walk_RCNL2025.trc
DataRate	CameraRate	NumFrames	NumMarkers	Units	OrigDataRate	OrigDataStartFrame	OrigNumFrames
100	100	4	27	mm	100	211	420
Frame#	Time	R_Shoulder			L_Shoulder			C7			J_Notch			R_Elbow			L_Elbow			R_Wrist			L_Wrist			R_Asis			L_Asis			R_Psis			L_Psis			Sacral			Thoracic			Sternum			R_Thigh_Lateral			R_Knee_Lateral			R_Shank_Lateral			R_Ankle_Lateral			R_Heel			R_Toe			L_Thigh_Lateral			L_Knee_Lateral			L_Shank_Lateral			L_Ankle_Lateral			L_Heel			L_Toe		
		X1	Y1	Z1	X2	Y2	Z2	X3	Y3	Z3	X4	Y4	Z4	X5	Y5	Z5	X6	Y6	Z6	X7	Y7	Z7	X8	Y8	Z8	X9	Y9	Z9	X10	Y10	Z10	X11	Y11	Z11	X12	Y12	Z12	X13	Y13	Z13	X14	Y14	Z14	X15	Y15	Z15	X16	Y16	Z16	X17	Y17	Z17	X18	Y18	Z18	X19	Y19	Z19	X20	Y20	Z20	X21	Y21	Z21	X22	Y22	Z22	X23	Y23	Z23	X24	Y24	Z24	X25	Y25	Z25	X26	Y26	Z26	X27	Y27	Z27
211	2.10000000	-628.772766	1292.244507	374.870605	-640.517822	1299.562012	-6.925659	-689.063904	1363.313599	199.393997	-548.586304	1242.266968	172.995865	-622.062134	983.287720	463.191956	-777.673157	1004.274353	-60.376774	-473.323578	806.087738	433.986557	-769.571594	788.278137	-79.595566	-636.313660	850.716370	355.227997	-663.338257	842.937866	3.161871	-787.086975	885.013916	238.871521	-791.123474	879.979126	147.378815	-789.105225	882.496521	193.125168	-777.087219	1116.962280	198.319519	-516.958984	1051.430176	170.648071	-683.584534	501.957245	362.763367	-722.473022	415.641632	309.770599	-784.131287	252.157196	373.058624	-874.380249	60.012638	279.711761	-926.326599	63.118374	238.201157	-749.971985	39.023823	249.867584	-561.305054	496.221985	-18.988373	-536.333496	423.398743	29.246771	-510.741302	306.843262	-18.927917	-431.231567	61.436459	59.141148	-465.838043	40.076542	111.750999	-297.840790	87.928062	59.113869
212	2.11000000	-619.950562	1290.872681	373.582825	-631.090088	1298.079834	-8.308223	-680.065247	1361.774170	197.949829	-539.108215	1241.168457	171.785034	-612.636658	982.043152	462.378235	-768.514404	1003.130493	-61.676895	-461.841049	806.526245	432.122681	-762.091888	787.157684	-81.599876	-625.744263	849.308655	354.261902	-651.744690	841.408997	2.141191	-776.397766	883.123352	237.440506	-780.257996	878.147705	145.956619	-778.327881	880.635529	191.698563	-767.212036	1115.046875	196.894333	-506.779877	1050.371826	169.744568	-675.793823	500.930786	362.108124	-715.933838	415.118530	309.209290	-780.528625	252.907669	373.158386	-873.721924	61.774815	280.105103	-925.720520	65.638840	238.646225	-749.793640	39.066113	249.932495	-551.197205	494.878876	-19.377436	-525.128967	422.123718	28.977425	-498.452087	305.706940	-18.987827	-420.911011	60.353485	59.377193	-456.316895	39.364689	111.573563	-287.308441	85.484924	61.162258
213	2.12000000	-611.247498	1289.574829	372.187012	-621.615356	1296.675659	-9.818067	-671.074158	1360.341797	196.357254	-529.590698	1240.207520	170.484970	-603.485840	980.824829	461.361603	-759.082581	1001.943542	-63.103561	-450.838409	806.841583	430.199020	-754.046661	786.010742	-83.675362	-614.895264	847.918457	353.221069	-640.076477	839.982422	1.024984	-765.542114	881.368835	236.107346	-769.342224	876.521423	144.612961	-767.442169	878.945129	190.360153	-757.259216	1113.220947	195.326904	-496.491272	1049.475464	168.759354	-667.343323	499.906799	361.292053	-708.712097	414.581696	308.516144	-776.410095	253.809464	373.202332	-872.876648	63.874615	280.527649	-924.912903	68.604805	239.140671	-749.551331	39.123219	250.026428	-540.457886	494.173157	-19.587168	-513.646790	421.178162	28.759918	-486.654388	304.657990	-18.909782	-412.845520	59.134174	59.644833	-449.171173	38.882774	111.430153	-278.879761	81.602562	63.230175
214	2.13000000	-602.631653	1288.409424	370.698517	-612.091492	1295.394287	-11.439059	-662.063171	1359.079224	194.629684	-520.028198	1239.436890	169.101349	-594.588318	979.686768	460.136108	-749.385132	1000.760925	-64.636627	-440.343521	807.041931	428.226913	-745.422485	784.884735	-85.813587	-603.775696	846.555359	352.105225	-628.382629	838.793945	-0.179832	-754.553833	879.807556	234.907196	-758.422729	875.175415	143.385590	-756.488281	877.491486	189.146393	-747.239502	1111.564941	193.641647	-486.093262	1048.801636	167.682861	-658.204285	498.918915	360.309814	-700.751770	414.058044	307.690918	-771.713135	254.902802	373.181976	-871.786560	66.378159	280.983124	-923.824585	72.100288	239.692429	-749.246948	39.190567	250.158112	-529.116882	494.117981	-19.679960	-501.957733	420.643768	28.565830	-475.358551	303.772003	-18.710754	-406.699158	57.932762	59.925365	-444.008850	38.749977	111.320610	-272.248688	76.587532	65.204979
